<?xml version="1.0" encoding="UTF-8"?>
<!DOCTYPE svg PUBLIC "-//W3C//DTD SVG 1.1//EN" "http://www.w3.org/Graphics/SVG/1.1/DTD/svg11.dtd">
<!-- Creator: CorelDRAW 2018 (64 Bit Versão de avaliação) -->
<svg xmlns="http://www.w3.org/2000/svg" xml:space="preserve" width="190.763mm" height="174.78mm" version="1.1" style="shape-rendering:geometricPrecision; text-rendering:geometricPrecision; image-rendering:optimizeQuality; fill-rule:evenodd; clip-rule:evenodd"
viewBox="0 0 21158.11 19385.33"
 xmlns:xlink="http://www.w3.org/1999/xlink">
 <defs>
  <style type="text/css">
   <![CDATA[
    .fil4 {fill:#009933}
    .fil0 {fill:#2E3547}
    .fil3 {fill:#C5D3DA}
    .fil2 {fill:#E7403B}
    .fil1 {fill:white}
   ]]>
  </style>
   <clipPath id="id0">
    <rect x="797.8" y="12575.63" width="9143.17" height="5879.51"/>
   </clipPath>
   <clipPath id="id1">
    <rect x="12424.83" y="9879.47" width="8733.29" height="8733.29"/>
   </clipPath>
 </defs>
 <g id="Camada_x0020_1">
  <metadata id="CorelCorpID_0Corel-Layer"/>
  <path class="fil0" d="M11379.49 19066.43c-4956.61,1328.13 -10051.37,-1613.34 -11379.49,-6569.94l0 -0.02 8974.71 -2404.77 2404.78 8974.73z"/>
  <path class="fil1" d="M9538.15 9293.49l-8974.71 2404.77 -0.18 -0.7c-1327.64,-4956.38 1613.77,-10050.71 6570.13,-11378.77l2404.76 8974.7z"/>
  <path class="fil2" d="M18512.87 6888.72l-8969.37 2403.34 -5.36 1.43 2404.78 8974.73 0.69 -0.19c4956.19,-1328.42 7897.31,-6422.93 6569.25,-11379.29l0 -0.02z"/>
  <path class="fil3" d="M7133.39 318.79c3.35,-0.9 6.7,-1.66 10.05,-2.55 4950.08,-1320.56 10035.21,1615.34 11366.62,6562.5 0.91,3.35 1.92,6.63 2.82,9.98l-8969.37 2403.34 -5.36 1.43 -2404.76 -8974.7z"/>
  <path class="fil3" d="M848.44 6013.81c1.22,-3.24 2.55,-6.41 3.78,-9.65 1815.75,-4790.63 7167.11,-7207.45 11961.71,-5402.2 3.26,1.21 6.51,2.31 9.75,3.54l-3281.52 8686.6 -1.96 5.19 -8691.76 -3283.48z"/>
  <g id="_2203944325184">
   <polygon class="fil4" points="13466.33,7116.03 14699.58,7115.31 14700.03,3374.6 13456.54,3375.51 "/>
   <polygon class="fil4" points="11831,7103.3 13045.05,7103.25 13044.98,4549.76 11830.91,4549.52 "/>
   <path class="fil4" d="M13652.54 1917.09c75.05,126.64 163.61,162.71 234.21,283.69 -53.63,100.89 -749.29,683.26 -884.21,824.82l-825.04 746.3c-60.65,54.25 -15.83,24.02 -78.6,63.91 -165.85,-124.06 -573.32,-559.43 -646.94,-669.66 -118.64,44.9 -1170.23,1073.18 -1250.12,1144.43 -201.78,179.98 -1170.05,1098.58 -1219.91,1189.8l202.87 212.25 557.44 -526.58c413.75,-370.14 959.1,-933.5 1381.39,-1315.59l204.38 -188.21c18.06,-17.46 23.99,-24.52 41.3,-38.99 40.17,-33.55 -3.7,-5.79 48.72,-35.44 160.83,108.25 504.19,577.79 691.38,666.82 48.19,-84.19 1064.51,-979.25 1232.69,-1144.56l499.26 -444.22c100.33,-98.42 149.34,-170.27 273.96,-234.28 113.65,88.61 141.17,200.13 266.32,255.55l313.77 -1009.17 -1042.87 219.12z"/>
   <polygon class="fil4" points="11425.68,7102.17 11421.13,5059.05 10194.93,5054.3 10194.93,7105.27 "/>
  </g>
  <g style="clip-path:url(#id0)">
   <image x="797.8" y="12575.63" width="9143.17" height="5879.51" xlink:href="home-background_Images\home-background_ImgID1.png"/>
  </g>
  <g style="clip-path:url(#id1)">
   <image x="12424.83" y="9879.48" width="8733.28" height="8733.28" xlink:href="home-background_Images\home-background_ImgID2.png"/>
  </g>
 </g>
</svg>
